<?xml version="1.0" encoding="utf-8"?>
<!-- Generator: Adobe Illustrator 16.0.0, SVG Export Plug-In . SVG Version: 6.00 Build 0)  -->
<!DOCTYPE svg PUBLIC "-//W3C//DTD SVG 1.1//EN" "http://www.w3.org/Graphics/SVG/1.1/DTD/svg11.dtd">
<svg version="1.1" id="Layer_1" xmlns="http://www.w3.org/2000/svg" xmlns:xlink="http://www.w3.org/1999/xlink" x="0px" y="0px"
	 width="75px" height="75px" viewBox="0 0 75 75" enable-background="new 0 0 75 75" xml:space="preserve">
<path d="M70.34,39.081c-0.398,2.573-0.426,5.243-1.273,7.701c-1.646,4.769-5.666,7.979-10.528,10.399
	c-7.365,3.668-15.386,4.893-23.777,4.437c-6.589-0.354-12.836-1.808-18.481-4.862c-4.964-2.688-8.771-6.199-10.19-11.281
	c-0.264-0.943-0.421-1.938-0.404-2.904c0.062-3.373-0.17-6.796,0.426-10.104c1.107-6.139,5.268-10.749,11.046-14.269
	c12.638-7.699,31.185-7.19,43.181,1.243c6.304,4.433,9.767,10.152,9.654,17.31c-0.011,0.763,0,1.526,0,2.289
	C70.109,39.055,70.223,39.066,70.34,39.081z M67.686,38.484c0-0.583-0.012-1.166,0.004-1.747c0.177-6.908-3.108-12.413-9.33-16.574
	c-7.934-5.306-17.01-6.845-26.774-5.421c-7.174,1.045-13.352,3.803-18.193,8.606c-6.249,6.2-6.206,13.599-4.954,21.04
	c0.757,4.5,4.37,7.684,8.761,9.92c12.262,6.244,24.998,6.479,37.906,1.623c4.558-1.713,8.277-4.396,10.758-8.234
	C67.734,44.8,67.818,41.664,67.686,38.484z"/>
<path d="M38.104,14.672c7.834,0.023,14.92,1.936,20.732,6.628c1.385,1.117,2.549,2.532,3.457,3.978
	c2.25,3.577,1.449,7.02-1.146,10.233c-2.28,2.826-5.426,4.772-9.059,6.053c-10.018,3.529-19.971,3.397-29.751-0.729
	c-2.437-1.028-4.561-2.45-6.346-4.234c-4.684-4.681-4.502-10.229,0.546-14.655c5.199-4.558,11.66-6.712,18.923-7.265
	C36.334,14.615,37.223,14.672,38.104,14.672z M36.824,15.455c-1.433,0.202-4.168,0.409-6.791,0.991
	c-5.192,1.154-9.792,3.299-13.209,6.979c-3.544,3.813-3.487,8,0.245,11.68c1.364,1.346,2.985,2.613,4.765,3.504
	c8.74,4.387,17.977,4.798,27.454,2.095c4.146-1.181,7.793-3.098,10.401-6.221c2.17-2.596,3.162-5.45,1.396-8.474
	c-0.894-1.526-2.067-3.037-3.502-4.198C52.139,17.403,45.473,15.62,36.824,15.455z"/>
<path d="M36.53,40.688c0.161,0.286,0.414,0.555,0.687,0.74c0.483,0.326,0.973,0.073,0.967-0.514
	c-0.003-0.345-0.095-0.729-0.271-1.023c-1.2-2.006-2.391-4.014-3.668-5.969c-0.747-1.14-1.715-2.109-2.973-2.903
	c0.026,0.152,0.024,0.189,0.041,0.217C33.046,34.391,34.778,37.544,36.53,40.688z M30.4,18.593
	c-0.214,2.137,1.007,3.706,1.903,5.458C32.986,22.41,31.832,19.019,30.4,18.593z M35.199,32.678
	c1.396,1.816,2.511,3.808,3.561,5.836c0.49,0.944,0.305,1.955-0.408,2.393c-0.776,0.472-1.721,0.178-2.326-0.737
	c-0.159-0.243-0.298-0.503-0.439-0.756c-1.613-2.921-3.236-5.837-4.824-8.772c-0.242-0.449-0.534-0.65-1.016-0.644
	c-0.257,0.003-0.525,0.034-0.772-0.021c-0.178-0.041-0.4-0.17-0.465-0.319c-0.052-0.118,0.096-0.333,0.185-0.488
	c0.044-0.074,0.154-0.112,0.239-0.16c0.688-0.41,0.686-0.409,0.311-1.094c-0.693-1.263-1.402-2.521-2.069-3.794
	c-0.439-0.835-0.614-1.736-0.47-2.681c0.052-0.34,0.135-0.69,0.573-0.62c0.411,0.066,0.395,0.406,0.332,0.73
	c-0.158,0.802,0.032,1.559,0.396,2.254c0.742,1.416,1.538,2.807,2.341,4.263c0.839-0.617,1.503-1.293,1.97-2.141
	c0.078-0.141,0.042-0.402-0.036-0.563c-0.533-1.072-1.153-2.104-1.619-3.202c-0.283-0.67-0.398-1.427-0.484-2.157
	c-0.062-0.53,0.138-1.043,0.699-1.272c0.562-0.233,1.049,0.015,1.395,0.417c1.451,1.693,2.004,3.64,1.42,5.821
	c-0.142,0.535-0.093,0.933,0.173,1.398c0.909,1.589,1.775,3.202,2.664,4.802c0.271,0.491,0.598,0.93,1.165,1.109
	c0.761,0.241,1.52-0.199,1.533-0.996c0.008-0.49-0.144-1.026-0.371-1.468c-0.716-1.398-1.501-2.76-2.261-4.136
	c-0.069-0.126-0.192-0.271-0.175-0.388c0.028-0.184,0.12-0.416,0.26-0.5c0.104-0.061,0.355,0.046,0.491,0.145
	c0.121,0.088,0.171,0.27,0.25,0.41c0.817,1.455,1.633,2.909,2.449,4.363c0.021,0.043,0.055,0.081,0.081,0.12
	c0.513,0.72,1.279,0.973,1.885,0.624c0.592-0.342,0.795-1.169,0.407-1.945c-0.489-0.986-1.025-1.946-1.547-2.915
	c-0.342-0.632-0.512-1.293-0.367-2.013c0.222-1.091,1.241-1.809,2.335-1.644c0.311,0.048,0.604,0.137,0.563,0.524
	c-0.041,0.38-0.324,0.416-0.653,0.381c-0.838-0.089-1.413,0.429-1.384,1.275c0.007,0.284,0.065,0.591,0.194,0.84
	c0.54,1.03,1.116,2.047,1.686,3.063c0.068,0.125,0.171,0.234,0.273,0.335c0.526,0.526,1.148,0.653,1.668,0.347
	c0.499-0.295,0.718-0.962,0.513-1.639c-0.084-0.276-0.269-0.528-0.326-0.806c-0.034-0.166,0.032-0.448,0.151-0.528
	c0.125-0.083,0.471-0.05,0.544,0.056c0.511,0.729,0.75,1.546,0.52,2.435c-0.202,0.789-0.738,1.319-1.521,1.473
	c-0.481,0.097-1.005-0.027-1.527-0.054c-0.378,1.62-1.627,2.216-3.251,1.632c0.01,0.072,0.034,0.142,0.023,0.202
	c-0.163,0.904-0.692,1.504-1.573,1.72c-0.924,0.229-1.688-0.137-2.293-0.831c-0.082-0.095-0.161-0.196-0.236-0.298
	c-0.124-0.173-0.236-0.354-0.339-0.539c-0.814-1.456-1.616-2.92-2.421-4.382c-0.083-0.151-0.169-0.304-0.241-0.436
	c-0.727,0.747-1.432,1.473-2.208,2.271c0.114,0.117,0.241,0.352,0.43,0.427C32.929,30.065,34.132,31.292,35.199,32.678z"/>
</svg>
