<?xml version="1.0" encoding="utf-8"?>
<!-- Generator: Adobe Illustrator 16.0.0, SVG Export Plug-In . SVG Version: 6.00 Build 0)  -->
<!DOCTYPE svg PUBLIC "-//W3C//DTD SVG 1.1//EN" "http://www.w3.org/Graphics/SVG/1.1/DTD/svg11.dtd">
<svg version="1.1" id="Layer_1" xmlns="http://www.w3.org/2000/svg" xmlns:xlink="http://www.w3.org/1999/xlink" x="0px" y="0px"
	 width="283.46px" height="192.76px" viewBox="0 0 283.46 192.76" enable-background="new 0 0 283.46 192.76" xml:space="preserve">
<path d="M274.177,66.533c0-1.784,0-3.568,0-5.318c4.074-0.636,4.242-0.43,3.523,3.462c-0.117,0.624,0.2,1.327,0.445,2.731
	c-0.836-0.931-1.188-1.282-1.488-1.672c-0.268-0.346-0.475-0.73-1.064-1.656c-0.508,1.215-0.786,1.884-1.064,2.553
	C274.412,66.6,274.294,66.566,274.177,66.533z"/>
<path d="M271.239,63.606c-0.134,2.821,1.923,5.04,4.683,5.079c2.594,0.033,4.834-2.096,4.9-4.655
	c0.066-2.537-2.068-4.839-4.621-4.973C273.637,58.917,271.361,61.002,271.239,63.606z M276.017,69.699
	c-3.322,0.005-5.814-2.431-5.854-5.731c-0.039-3.345,2.637-6.032,5.947-5.965c3.184,0.062,5.766,2.726,5.748,5.92
	C281.837,67.157,279.272,69.693,276.017,69.699z"/>
<path d="M231.73,70.747c-0.896-0.022-2.357-1.488-2.464-2.447c-0.101-0.897,1.249-1.951,2.548-3.747
	c1.236,1.834,2.547,2.927,2.425,3.819C234.111,69.326,232.605,70.77,231.73,70.747z"/>
<path fill="#FFFFFF" d="M208.466,110.546c0.007,1.209,0.068,2.436,0.213,3.646l-5.903,0.779
	c-1.517-9.916-4.159-19.406-10.743-27.372c-0.74-0.903-0.725-2.431-0.97-3.333c6.104-1.862,11.656-3.551,17.376-5.291
	c0,0.864,0,1.862,0,2.86C208.438,91.407,208.412,100.974,208.466,110.546z"/>
<path d="M191.212,152.892c0.012,1.7,0.485,3.547,1.254,5.063c1.373,2.681,4.222,2.748,5.654,0.089
	c0.842-1.561,1.387-3.533,1.325-5.302c-0.423-12.048-0.797-24.104-1.7-36.125c-0.529-7.019-2.49-13.813-6.199-20.543
	c-0.262,0.758-0.361,0.926-0.361,1.087C191.167,115.741,191.134,134.315,191.212,152.892z M218.591,37.739
	c-6.301,9.126-4.688,19.255-5.008,29.429C220.759,61.437,223.998,43.23,218.591,37.739z M202.775,114.972
	c1.984,12.995,2.066,26.086,1.729,39.18c-0.156,6.101-3.887,10.66-8.681,10.877c-5.206,0.229-9.138-3.868-9.639-10.135
	c-0.134-1.666-0.117-3.346-0.117-5.018c-0.012-19.139-0.084-38.275,0.072-57.415c0.028-2.927-0.888-4.75-3.322-6.049
	c-1.305-0.702-2.731-1.288-3.819-2.252c-0.779-0.691-1.537-1.957-1.455-2.888c0.067-0.719,1.405-1.405,2.287-1.935
	c0.424-0.256,1.086-0.134,1.645-0.15c4.588-0.145,4.576-0.145,4.588-4.622c0.021-8.268-0.057-16.541,0.123-24.802
	c0.111-5.408,1.729-10.408,5.072-14.762c1.199-1.561,2.586-3.088,4.589-1.522c1.884,1.466,0.858,3.127-0.362,4.577
	c-3.011,3.59-4.148,7.927-4.248,12.42c-0.195,9.176-0.056,18.363-0.056,27.913c5.926-0.792,11.138-2.347,15.825-5.307
	c0.781-0.496,1.334-1.907,1.377-2.921c0.291-6.862,0.039-13.764,0.742-20.577c0.43-4.147,1.951-8.267,3.545-12.169
	c1.154-2.832,3.586-4.856,7.031-4.46c3.467,0.39,5.229,2.988,5.848,5.965c2.598,12.521-0.018,23.833-8.992,33.17
	c-2.196,2.291-3.055,4.426-3.006,7.498c0.168,10.497,0.052,21,0.072,31.497c0.006,3.212,0.431,6.322,2.782,8.798
	c3.161,3.328,8.185,3.212,10.458-0.759c1.399-2.436,2.124-5.553,2.208-8.396c0.272-9.002,0.101-18.022,0.104-27.032
	c0-0.836-0.229-1.907,0.19-2.442c0.646-0.836,1.75-1.761,2.687-1.79c0.691-0.022,1.662,1.21,2.068,2.085
	c0.356,0.774,0.111,1.828,0.117,2.754c0.072,9.566,0.145,19.131,0.223,28.693c0,0.278,0.039,0.558,0.072,0.837
	c0.58,5.021,3.729,8.423,7.732,8.346c3.925-0.078,7.23-3.668,7.447-8.636c0.273-6.306,0.234-12.621,0.291-18.938
	c0.039-4.12,1.015-7.911,3.729-11.111c4.143-4.873,11.25-5.647,16.289-1.795c1.428,1.093,2.659,2.369,1.377,4.187
	c-1.26,1.79-2.775,1.193-4.331,0.106c-3.97-2.776-8.29-1.756-10.491,2.564c-0.742,1.449-1.306,3.161-1.339,4.761
	c-0.146,6.685-0.071,13.374-0.032,20.059c0.006,0.818,0.223,1.654,0.45,2.452c1.183,4.099,3.97,6.462,7.427,6.351
	c3.301-0.105,6.26-2.854,7.103-6.813c0.346-1.623,0.116-3.391,0.597-4.951c0.29-0.932,1.404-2.163,2.229-2.229
	c0.849-0.067,2.504,1.047,2.576,1.777c0.541,5.073-0.519,9.84-4.131,13.669c-3.205,3.401-7.375,4.577-11.729,3.188
	c-2.683-0.857-4.979-2.926-7.526-4.504c-6.389,7.086-14.305,6.617-20.85-0.813c-0.15,0.39-0.212,0.81-0.436,1.081
	c-3.322,4.087-7.644,5.637-12.666,4.281c-5.273-1.416-8.101-5.352-9.216-10.52c-0.149-0.709-0.268-1.428-0.356-2.158
	c-0.145-1.209-0.205-2.437-0.211-3.646c-0.057-9.571-0.028-19.139-0.028-28.71c0-0.998,0-1.996,0-2.86
	c-5.72,1.739-11.271,3.428-17.376,5.291c0.245,0.903,0.229,2.431,0.97,3.333C198.617,95.566,201.259,105.056,202.775,114.972z"/>
<path d="M98.002,107.804c9.154-3.017,17.221-7.916,22.985-15.9c4.794-6.634,6.985-13.931,3.078-21.658
	c-1.974-3.902-4.566-7.766-7.732-10.731C104.297,48.248,89.568,43.688,70.458,43.27c-3.167,0.513-9.209,1.042-15.007,2.536
	c-11.468,2.949-21.636,8.429-29.19,17.834c-7.833,9.75-7.704,20.448,0.541,29.853c3.016,3.439,6.601,6.679,10.531,8.965
	C56.643,113.662,77.058,114.71,98.002,107.804z M119.097,58.209c3.061,2.86,5.636,6.472,7.643,10.168
	c4.967,9.143,3.2,17.945-2.537,26.157c-5.04,7.219-11.986,12.197-20.014,15.47c-22.137,9.024-44.13,8.687-65.744-1.862
	c-5.385-2.631-10.079-6.26-14.026-10.82c-10.347-11.968-9.946-26.146,1.209-37.457c11.49-11.651,25.767-17.16,41.816-18.576
	c1.929-0.167,3.892-0.022,5.843-0.022C90.599,41.329,106.258,46.218,119.097,58.209z"/>
<path d="M27.576,48.152c27.924-19.679,68.91-18.38,95.418,3.172c13.932,11.334,21.582,25.951,21.339,44.248
	c-0.026,1.951-0.004,3.898-0.004,5.848c0.256,0.039,0.512,0.072,0.769,0.104c-0.882,6.578-0.94,13.402-2.815,19.686
	c-3.635,12.188-12.521,20.393-23.269,26.587c-16.273,9.376-33.995,12.498-52.537,11.339c-14.562-0.908-28.365-4.621-40.841-12.432
	c-10.971-6.868-19.378-15.844-22.517-28.84c-0.585-2.407-0.931-4.949-0.892-7.426c0.134-8.617-0.379-17.364,0.937-25.821
	C5.611,68.93,14.809,57.145,27.576,48.152z M27.67,140.449c27.093,15.96,55.241,16.557,83.767,4.147
	c10.063-4.383,18.285-11.24,23.765-21.045c4.137-7.41,4.326-15.427,4.031-23.555c0-1.482-0.028-2.973,0.005-4.454
	c0.39-17.661-6.868-31.732-20.616-42.369C101.09,39.612,81.038,35.682,59.458,39.316c-15.855,2.676-29.508,9.722-40.2,21.998
	C5.449,77.164,5.544,96.073,8.309,115.095C9.981,126.597,17.964,134.729,27.67,140.449z"/>
</svg>
